<svg width="1280" height="640" viewBox="0 0 1280 640" fill="none" xmlns="http://www.w3.org/2000/svg" role="img" aria-labelledby="title desc">
  <title id="title">Yuketang Homework Exporter Cover</title>
  <desc id="desc">A release cover for yuketang-homework-exporter showing a polished Rain Classroom homework export workflow.</desc>
  <defs>
    <linearGradient id="bg" x1="100" y1="40" x2="1180" y2="600" gradientUnits="userSpaceOnUse">
      <stop stop-color="#FFF5E8"/>
      <stop offset="0.52" stop-color="#F7F8F4"/>
      <stop offset="1" stop-color="#EEF7FF"/>
    </linearGradient>
    <linearGradient id="cardAccent" x1="726" y1="118" x2="1078" y2="428" gradientUnits="userSpaceOnUse">
      <stop stop-color="#FFF6DD"/>
      <stop offset="1" stop-color="#FFFFFF"/>
    </linearGradient>
    <linearGradient id="docAccent" x1="842" y1="214" x2="1136" y2="520" gradientUnits="userSpaceOnUse">
      <stop stop-color="#FFFFFF"/>
      <stop offset="1" stop-color="#F8FBFF"/>
    </linearGradient>
    <filter id="shadowSoft" x="655" y="85" width="532" height="434" filterUnits="userSpaceOnUse" color-interpolation-filters="sRGB">
      <feFlood flood-opacity="0" result="BackgroundImageFix"/>
      <feColorMatrix in="SourceAlpha" type="matrix" values="0 0 0 0 0 0 0 0 0 0 0 0 0 0 0 0 0 0 127 0" result="hardAlpha"/>
      <feOffset dx="0" dy="24"/>
      <feGaussianBlur stdDeviation="24"/>
      <feComposite in2="hardAlpha" operator="out"/>
      <feColorMatrix type="matrix" values="0 0 0 0 0.0823529 0 0 0 0 0.14902 0 0 0 0 0.262745 0 0 0 0.12 0"/>
      <feBlend mode="normal" in2="BackgroundImageFix" result="effect1_dropShadow_1_1"/>
      <feBlend mode="normal" in="SourceGraphic" in2="effect1_dropShadow_1_1" result="shape"/>
    </filter>
    <filter id="shadowLight" x="806" y="177" width="398" height="394" filterUnits="userSpaceOnUse" color-interpolation-filters="sRGB">
      <feFlood flood-opacity="0" result="BackgroundImageFix"/>
      <feColorMatrix in="SourceAlpha" type="matrix" values="0 0 0 0 0 0 0 0 0 0 0 0 0 0 0 0 0 0 127 0" result="hardAlpha"/>
      <feOffset dx="0" dy="20"/>
      <feGaussianBlur stdDeviation="18"/>
      <feComposite in2="hardAlpha" operator="out"/>
      <feColorMatrix type="matrix" values="0 0 0 0 0.0705882 0 0 0 0 0.160784 0 0 0 0 0.286275 0 0 0 0.1 0"/>
      <feBlend mode="normal" in2="BackgroundImageFix" result="effect1_dropShadow_1_1"/>
      <feBlend mode="normal" in="SourceGraphic" in2="effect1_dropShadow_1_1" result="shape"/>
    </filter>
    <pattern id="grid" width="40" height="40" patternUnits="userSpaceOnUse">
      <path d="M40 0H0V40" stroke="#DDE7EF" stroke-opacity="0.55" stroke-width="1"/>
    </pattern>
    <style>
      .title { font: 800 62px/1.05 "Segoe UI", "PingFang SC", "Microsoft YaHei", sans-serif; fill: #10233B; }
      .subtitle { font: 500 22px/1.5 "Segoe UI", "PingFang SC", "Microsoft YaHei", sans-serif; fill: #38506A; }
      .kicker { font: 700 15px/1.2 "Segoe UI", "PingFang SC", "Microsoft YaHei", sans-serif; fill: #C45A11; letter-spacing: 0.08em; }
      .badge { font: 700 14px/1 "Segoe UI", "PingFang SC", "Microsoft YaHei", sans-serif; fill: #17304C; }
      .small { font: 600 14px/1.3 "Segoe UI", "PingFang SC", "Microsoft YaHei", sans-serif; fill: #55718B; }
      .cardTitle { font: 700 20px/1.2 "Segoe UI", "PingFang SC", "Microsoft YaHei", sans-serif; fill: #10233B; }
      .body { font: 600 18px/1.35 "Segoe UI", "PingFang SC", "Microsoft YaHei", sans-serif; fill: #18324D; }
      .mono { font: 700 14px/1 "Consolas", "SFMono-Regular", monospace; fill: #24567A; }
    </style>
  </defs>

  <rect width="1280" height="640" rx="32" fill="url(#bg)"/>
  <rect x="0" y="0" width="1280" height="640" rx="32" fill="url(#grid)" opacity="0.5"/>

  <circle cx="1170" cy="92" r="68" fill="#FFCF8A" opacity="0.72"/>
  <circle cx="1032" cy="550" r="98" fill="#BEE8FF" opacity="0.45"/>
  <circle cx="724" cy="88" r="24" fill="#FF8C57" opacity="0.9"/>
  <path d="M1098 108C1159.67 155.333 1190.33 212.667 1190 280" stroke="#FFAA6D" stroke-width="10" stroke-linecap="round" opacity="0.55"/>
  <path d="M689 463C728.333 438.333 773.667 426.667 825 428" stroke="#86BEE9" stroke-width="8" stroke-linecap="round" opacity="0.55"/>

  <text x="96" y="118" class="kicker">RAIN CLASSROOM WORKFLOW</text>
  <text x="96" y="196" class="title">雨课堂</text>
  <text x="96" y="262" class="title">Homework Exporter</text>
  <text x="96" y="328" class="subtitle">复用浏览器登录态，批量抓取作业，自动把题目截图、你的作答、平台判定与得分整理成 Word。</text>

  <rect x="96" y="382" width="154" height="42" rx="21" fill="#FFFFFF" stroke="#D8E4EE"/>
  <text x="126" y="408" class="badge">Edge / Chrome</text>

  <rect x="264" y="382" width="170" height="42" rx="21" fill="#FFFFFF" stroke="#D8E4EE"/>
  <text x="295" y="408" class="badge">Rendered Screenshots</text>

  <rect x="448" y="382" width="150" height="42" rx="21" fill="#FFFFFF" stroke="#D8E4EE"/>
  <text x="489" y="408" class="badge">Word .docx</text>

  <rect x="96" y="458" width="480" height="106" rx="22" fill="#FFFFFF" stroke="#D7E4EE"/>
  <text x="124" y="496" class="small">Best for:</text>
  <text x="124" y="530" class="body">整理雨课堂作业复习资料</text>
  <text x="124" y="558" class="body">导出题目 + 作答 + 平台判定</text>

  <g filter="url(#shadowSoft)">
    <rect x="703" y="109" width="436" height="338" rx="28" fill="url(#cardAccent)"/>
    <rect x="703" y="109" width="436" height="338" rx="28" stroke="#E7D7B6"/>
    <rect x="703" y="109" width="436" height="50" rx="28" fill="#FFE7BC"/>
    <rect x="703" y="131" width="436" height="28" fill="#FFE7BC"/>
    <circle cx="741" cy="134" r="7" fill="#FF8C57"/>
    <circle cx="765" cy="134" r="7" fill="#FFBD66"/>
    <circle cx="789" cy="134" r="7" fill="#44B37A"/>
    <text x="823" y="140" class="small">Rain Classroom Assignment View</text>

    <text x="742" y="198" class="cardTitle">第 3 章 作业 1</text>
    <rect x="742" y="218" width="202" height="28" rx="14" fill="#F4F7FB"/>
    <text x="760" y="237" class="small">题目数 19</text>
    <text x="840" y="237" class="small">总分 100</text>

    <rect x="742" y="270" width="356" height="112" rx="18" fill="#FFFFFF" stroke="#DFE8F0"/>
    <text x="766" y="304" class="body">1. 下列属于数据挖掘任务的是（ ）</text>
    <text x="790" y="336" class="body">A. 根据性别划分公司的顾客</text>
    <text x="790" y="366" class="body">D. 利用历史记录预测公司的未来股价</text>
    <circle cx="770" cy="332" r="8" fill="#F26D3D"/>
    <circle cx="770" cy="362" r="8" fill="#285A84"/>
  </g>

  <g filter="url(#shadowLight)">
    <rect x="848" y="204" width="318" height="322" rx="26" fill="url(#docAccent)"/>
    <rect x="848" y="204" width="318" height="322" rx="26" stroke="#D8E4EE"/>
    <text x="878" y="252" class="cardTitle">Exported Review Pack</text>
    <text x="878" y="280" class="small">yuketang_homework_export.docx</text>

    <rect x="878" y="312" width="258" height="52" rx="16" fill="#F8FBFF" stroke="#E0EAF2"/>
    <circle cx="906" cy="338" r="10" fill="#4CB47C"/>
    <path d="M901 338L905 342L912 334" stroke="#FFFFFF" stroke-width="2.5" stroke-linecap="round" stroke-linejoin="round"/>
    <text x="926" y="343" class="body">题目截图已插入文档</text>

    <rect x="878" y="378" width="258" height="52" rx="16" fill="#FFF9EF" stroke="#F0E1BF"/>
    <circle cx="906" cy="404" r="10" fill="#F19A33"/>
    <path d="M901 404L905 408L912 400" stroke="#FFFFFF" stroke-width="2.5" stroke-linecap="round" stroke-linejoin="round"/>
    <text x="926" y="409" class="body">作答与平台判定同步整理</text>

    <rect x="878" y="444" width="258" height="52" rx="16" fill="#F7FBFF" stroke="#DCE8F2"/>
    <text x="900" y="476" class="mono">output/yuketang_homework_export.docx</text>
  </g>
</svg>
